<!-- Copyright (c) 2020 - 2022 Persanix LLC. All rights reserved. -->
<svg xmlns="http://www.w3.org/2000/svg" viewBox="0 0 1320 581.21"><path d="M229.4,319.78l7.75,8.53c-17.83,21.71-45,32.95-75.2,32.95C103,361.26,60,319,60,259.31s40.31-101.95,96.52-101.95c52.72,0,89.54,41.09,92.65,91.48L75.5,283.34c9.7,39.93,42.64,66.29,86.83,66.29C189.08,349.63,213.5,339.94,229.4,319.78Zm-157-61.63c0,5,.39,10.07.78,14.73L236,241.09c-5-38.37-34.89-72.1-79.47-72.1C107.29,169,72.4,206.59,72.4,258.15Z" style="fill:#c36"/><path d="M488.31,241.87V360.09H475.52V242.64c0-48.07-25.58-73.26-69.38-73.26-50.4,0-81,32.56-81,82.18V360.09H312.33V158.91h12.4v49.23c12.79-31,41.87-50.78,82.57-50.78C456.53,157.36,488.31,186.43,488.31,241.87Z" style="fill:#c36"/><path d="M747.23,72.47V360.09H734.82v-55c-15.12,34.89-47.29,56.21-86.83,56.21-55.82,0-98.46-41.87-98.46-101.95S592.17,157.36,648,157.36c38.77,0,71.33,20.93,86.44,55.43V72.47Zm-12.8,186.84c0-53.5-36.82-89.93-86-89.93s-86.06,36.43-86.06,89.93,36.83,90.32,86.06,90.32S734.43,312.8,734.43,259.31Z" style="fill:#c36"/><path d="M924,157.36v12.79h-3.49c-46.9,0-74.42,31.4-74.42,83v107h-12.8V158.91h12.41v48.46C857.29,175.58,884.42,157.36,924,157.36Z" style="fill:#c36"/><path d="M1177.85,259.7c0,59.69-42.64,101.56-98.46,101.56-38.76,0-71.32-20.94-86.44-55.05V435.3H980.16V158.91h12.4v55c15.12-35.27,47.29-56.59,86.83-56.59C1135.21,157.36,1177.85,199.61,1177.85,259.7Zm-12.79,0c0-53.5-36.83-90.32-86.06-90.32s-86,36.82-86,90.32,36.82,89.93,86,89.93S1165.06,313.19,1165.06,259.7Z" style="fill:#666"/><path d="M1234.42,72.79A12.9,12.9,0,0,1,1247.21,60c7,0,12.79,5.81,12.79,12.4a12.9,12.9,0,0,1-12.79,12.79C1240.23,85.19,1234.42,79.38,1234.42,72.79Z" style="fill:#666"/><rect x="1241.01" y="158.91" width="12.79" height="201.18" style="fill:#666"/><path d="M944.83,493.08a5.42,5.42,0,0,1-5.57,5.69,4.83,4.83,0,0,1-4.31-2.31v2.21H933.5V482.9H935v6.71a4.91,4.91,0,0,1,4.25-2.21A5.41,5.41,0,0,1,944.83,493.08Zm-1.51,0a4.17,4.17,0,1,0-4.16,4.36A4.1,4.1,0,0,0,943.32,493.08Z" style="fill:#666"/><path d="M957,487.49,951.41,500c-.94,2.19-2.13,2.89-3.72,2.89a3.83,3.83,0,0,1-2.72-1l.7-1.13a2.79,2.79,0,0,0,2,.85c1,0,1.68-.47,2.32-1.87l.48-1.08-5-11.16h1.57l4.21,9.5,4.21-9.5Z" style="fill:#666"/><path d="M1243.45,487.61v-4h-1.52v-.7h3.85v.7h-1.54v4Zm2.86,0V482.9h1.15l1.2,3.76,1.15-3.76h1.13v4.71h-.72v-3.95l-1.21,3.95h-.71l-1.27-4v4Z" style="fill:#666"/><path d="M1014.44,501.59h7.71a1.37,1.37,0,0,0,1.37-1.37h0a1.37,1.37,0,0,0-1.37-1.37h-7.71a.76.76,0,0,1-.76-.76V486.43a.76.76,0,0,1,.76-.77h20.49a1.37,1.37,0,0,0,1.37-1.37v0a1.37,1.37,0,0,0-1.37-1.37h-23.46a1.37,1.37,0,0,0-1.37,1.37v35.57a1.37,1.37,0,0,0,1.37,1.37h23.61a1.37,1.37,0,0,0,1.37-1.37h0a1.37,1.37,0,0,0-1.37-1.37h-20.64a.76.76,0,0,1-.76-.76V502.36A.76.76,0,0,1,1014.44,501.59Z" style="fill:#666"/><path d="M998.49,486.11a12.69,12.69,0,0,0-4.47-2.37,20.35,20.35,0,0,0-6.14-.84h-9.6a1.34,1.34,0,0,0-1.34,1.34h0a1.43,1.43,0,0,0,1.43,1.42h9.51a14.92,14.92,0,0,1,4.86.71,8.87,8.87,0,0,1,3.31,1.9,7.28,7.28,0,0,1,1.89,2.79,9.45,9.45,0,0,1,0,6.68,7.23,7.23,0,0,1-1.89,2.71,9.31,9.31,0,0,1-3.31,1.79,16.57,16.57,0,0,1-4.86.63h-13a1.43,1.43,0,0,0-1.43,1.42v15.13a1.79,1.79,0,0,0,1.79,1.79h0a1.79,1.79,0,0,0,1.79-1.79v-13a.76.76,0,0,1,.77-.76h10.08a22.4,22.4,0,0,0,6.16-.77,12.14,12.14,0,0,0,4.45-2.21,9,9,0,0,0,2.71-3.52,11.7,11.7,0,0,0,.93-4.77,11.36,11.36,0,0,0-.93-4.63A9.43,9.43,0,0,0,998.49,486.11Z" style="fill:#666"/><path d="M1227.38,501.63l11.82-16a1.7,1.7,0,0,0-1.37-2.72h0a1.7,1.7,0,0,0-1.38.7l-11.14,15.2a.28.28,0,0,1-.45,0l-11.14-15.2a1.7,1.7,0,0,0-1.38-.7h0a1.71,1.71,0,0,0-1.37,2.72l11.85,16a.29.29,0,0,1,0,.33l-12.29,16.54a1.7,1.7,0,0,0,1.36,2.71h0a1.69,1.69,0,0,0,1.37-.69l11.6-15.74a.28.28,0,0,1,.45,0l11.54,15.73a1.73,1.73,0,0,0,1.39.7h0a1.72,1.72,0,0,0,1.38-2.74L1227.38,502A.29.29,0,0,1,1227.38,501.63Z" style="fill:#666"/><rect x="1197.37" y="482.9" width="3.58" height="38.31" rx="1.79" style="fill:#666"/><path d="M1181.69,515l-23.24-31.42a1.76,1.76,0,0,0-1.42-.71h-.94a1.76,1.76,0,0,0-1.76,1.76v34.79a1.76,1.76,0,0,0,1.76,1.76h.06a1.76,1.76,0,0,0,1.77-1.76V489.27a.28.28,0,0,1,.5-.17l23,31.15a2.35,2.35,0,0,0,1.91,1h0a2.37,2.37,0,0,0,2.36-2.37V484.66a1.76,1.76,0,0,0-1.76-1.76h0a1.76,1.76,0,0,0-1.77,1.76v30.21A.27.27,0,0,1,1181.69,515Z" style="fill:#666"/><path d="M1083.65,514a3.79,3.79,0,0,0-.48-.69,1.67,1.67,0,0,0-2.63,2,10.29,10.29,0,0,0,.84,1.1,11.8,11.8,0,0,0,2.65,2.13,17.47,17.47,0,0,0,3.29,1.48,23.2,23.2,0,0,0,3.66.85,25.91,25.91,0,0,0,3.81.28,24.28,24.28,0,0,0,5.82-.66,15.25,15.25,0,0,0,4.59-1.92,9.48,9.48,0,0,0,3-3,7.79,7.79,0,0,0,1.1-4.1,8.2,8.2,0,0,0-.93-4,9.14,9.14,0,0,0-2.73-3,18,18,0,0,0-4.42-2.31,55.1,55.1,0,0,0-6-1.79,44,44,0,0,1-5.39-1.56,16.25,16.25,0,0,1-3.51-1.8,5.87,5.87,0,0,1-1.92-2.1,5.48,5.48,0,0,1-.56-2.45,5.68,5.68,0,0,1,.67-2.67,6.66,6.66,0,0,1,2-2.17,10.32,10.32,0,0,1,3.31-1.49,17.42,17.42,0,0,1,4.63-.56,22.62,22.62,0,0,1,3.48.4,1.34,1.34,0,0,0,1.53-.93h0a1.36,1.36,0,0,0-1-1.72,24.86,24.86,0,0,0-4-.44,21.56,21.56,0,0,0-5.73.72,14.53,14.53,0,0,0-4.51,2,9.29,9.29,0,0,0-2.94,3,7.61,7.61,0,0,0-1,3.92,7.45,7.45,0,0,0,1,3.84,9.68,9.68,0,0,0,2.76,2.89,19.71,19.71,0,0,0,4.36,2.21q2.56.91,5.76,1.71a53,53,0,0,1,5.53,1.64,14.43,14.43,0,0,1,3.55,1.82,5.47,5.47,0,0,1,1.91,2.18,6,6,0,0,1,.59,2.71,5.53,5.53,0,0,1-.79,2.89,6.57,6.57,0,0,1-2.21,2.21,11.55,11.55,0,0,1-3.46,1.43,18.74,18.74,0,0,1-4.48.49,22.24,22.24,0,0,1-4.36-.44,13.16,13.16,0,0,1-3.93-1.46,8.5,8.5,0,0,1-2.85-2.61" style="fill:#666"/><path d="M1071.18,521.21a2.06,2.06,0,0,1-1.5-.85l-.72-1-8.91-13.76-.09-.16a2.23,2.23,0,0,1,1.19-3.07c.4-.16.77-.3.85-.32.26-.07.52-.15.77-.24a9.29,9.29,0,0,0,3.14-1.81,7.07,7.07,0,0,0,1.86-2.64,7.94,7.94,0,0,0,.64-3.14h0v0a8.57,8.57,0,0,0-.7-3.54,6.89,6.89,0,0,0-2.09-2.68,9.27,9.27,0,0,0-3.37-1.68,15.84,15.84,0,0,0-4.63-.61h-10.15V502.5h0v16.91a1.8,1.8,0,0,1-1.8,1.8h0a1.8,1.8,0,0,1-1.8-1.8V484.7a1.8,1.8,0,0,1,1.8-1.8h11.95a22.26,22.26,0,0,1,6,.73,12.89,12.89,0,0,1,4.54,2.19,9.3,9.3,0,0,1,2.88,3.53,10.94,10.94,0,0,1,1,4.84,9.87,9.87,0,0,1-.64,3.57,10.34,10.34,0,0,1-1.8,3,11.55,11.55,0,0,1-2.8,2.31,13.16,13.16,0,0,1-2.6,1.21.77.77,0,0,0-.39,1.14l8.67,13.45a1.51,1.51,0,0,1-1.28,2.33Z" style="fill:#666"/><path d="M1145.21,520.6a2.87,2.87,0,0,0,1.06-3.5c-2.94-7.12-8.83-21.5-13.47-32.64a2.54,2.54,0,0,0-2.35-1.56h0a2.54,2.54,0,0,0-2.35,1.56l-14.29,34.32a1.72,1.72,0,1,0,3.16,1.36l3.91-9.67,8.85-21.87a.77.77,0,0,1,1.42,0l8.87,21.87,2.89,6.68c.41.87,0,1.37-.92,1.35l-15.65-.08a1.38,1.38,0,0,0-1.4,1.38h0a1.38,1.38,0,0,0,1.38,1.38l16.92,0a3.47,3.47,0,0,0,2-.61Z" style="fill:#666"/></svg>